<svg id="Capa_1" data-name="Capa 1" xmlns="http://www.w3.org/2000/svg" viewBox="0 0 1000 1000"><defs><style>.cls-1{fill:#fff;}</style></defs><path class="cls-1" d="M96.16,522.76,35.49,356.06H53.16l60.67,166.7ZM165,356.06h17.67l-43.3,119-5.93,16.3-8.84-24.28,5.93-16.3Z"/><path class="cls-1" d="M225.25,441.75a85.69,85.69,0,1,1,85.69,85.69A85.7,85.7,0,0,1,225.25,441.75Zm155.1,0a69.42,69.42,0,1,0-69.41,69.41A69.41,69.41,0,0,0,380.35,441.75Z"/><path class="cls-1" d="M594.66,441.75a85.69,85.69,0,1,1,85.69,85.69A85.7,85.7,0,0,1,594.66,441.75Zm155.1,0a69.42,69.42,0,1,0-69.41,69.41A69.41,69.41,0,0,0,749.76,441.75Z"/><path class="cls-1" d="M955.81,522.41l-145.19-143V356.13L939.21,482.77V356.06h16.6V522.41ZM810.62,420.21V522.48h16.61V436.57Z"/><path class="cls-1" d="M489.44,418.23c-8.29-5.44-13.09-12.78-13-23,.09-6.41,1.45-12.37,5.59-17.42,4.67-5.69,11-8.17,18.1-8.52,11.43-.55,21.16,2.66,27.13,13.32.45.79.79.6,1.36.26,3.16-1.92,6.32-3.84,9.51-5.7.77-.44.73-.8.33-1.49-4.71-8-11.14-14.05-20-17.14a47.94,47.94,0,0,0-26.93-1.08c-24.27,5.58-34.45,28.22-28.12,49.66,2.54,8.62,8.41,14.81,15.37,20.08,2.12,1.61,4.31,3.1,6.54,4.53l9.16-10.46C492.77,420.31,491.09,419.31,489.44,418.23Z"/><path class="cls-1" d="M546.54,473.51c-.77-13.51-6.67-24.09-17.46-32.13a142,142,0,0,0-16.51-10.33l-9.42,10.75a117.36,117.36,0,0,1,16.33,9.87c5.67,4.3,10,9.55,11.93,16.55a42.06,42.06,0,0,1,.86,16.79c-1,7.86-3.84,14.88-10,20.2-5.28,4.57-11.58,6.57-18.41,7.1-10.71.84-20.28-1.78-28.05-9.57a35,35,0,0,1-8.6-15.29c-4.05,2.16-8,4.3-12,6.39-.87.45-.37,1-.16,1.44a61.12,61.12,0,0,0,4.74,9c5.79,9.07,13.54,15.68,23.93,18.94a55.31,55.31,0,0,0,27.54,1.22c13.71-2.68,24.25-9.87,30.5-22.62C546.13,492.92,547.1,483.36,546.54,473.51Z"/><path class="cls-1" d="M674,612.22V583.5a10.59,10.59,0,0,1,0-1.13,1.84,1.84,0,0,1,2.91-1.34,6.5,6.5,0,0,1,.91.83l51.67,51.66a9.82,9.82,0,0,0,.81.77,1.81,1.81,0,0,0,1.94.24,1.77,1.77,0,0,0,1.1-1.6c0-.38,0-.76,0-1.13V583.48a7.08,7.08,0,0,1,0-1.13,1.91,1.91,0,0,1,1.9-1.67,1.87,1.87,0,0,1,1.82,1.63,7.07,7.07,0,0,1,.06,1.13v57.65c0,.31,0,.62,0,.93a1.87,1.87,0,0,1-1.25,1.72,1.83,1.83,0,0,1-2-.45c-.26-.23-.49-.47-.73-.72q-25.66-25.64-51.31-51.29c-.27-.26-.54-.52-.8-.79A1.85,1.85,0,0,0,679,590a1.88,1.88,0,0,0-1.19,1.86v49.35c0,1.75-.62,2.63-1.86,2.65s-1.9-.87-1.9-2.6Z"/><path class="cls-1" d="M844.17,612.23V583.5a8.49,8.49,0,0,1,0-1.13,1.84,1.84,0,0,1,2.91-1.34,7,7,0,0,1,.9.83l51.67,51.66c.27.26.53.54.82.77a1.83,1.83,0,0,0,1.94.24,1.76,1.76,0,0,0,1.1-1.6c0-.38,0-.75,0-1.13q0-24.16,0-48.32a8.5,8.5,0,0,1,0-1.13,1.92,1.92,0,0,1,1.91-1.67,1.87,1.87,0,0,1,1.82,1.63,7,7,0,0,1,.06,1.12v57.66c0,.31,0,.62,0,.93a1.87,1.87,0,0,1-1.25,1.72,1.83,1.83,0,0,1-2-.45,9.9,9.9,0,0,1-.73-.72l-51.31-51.28-.8-.8a1.87,1.87,0,0,0-2.16-.5,1.9,1.9,0,0,0-1.19,1.87v49.25c0,1.85-.6,2.73-1.86,2.75s-1.9-.88-1.9-2.7Z"/><path class="cls-1" d="M805.51,627.14v14c0,.34,0,.68,0,1a1.86,1.86,0,0,1-1.81,1.75,1.93,1.93,0,0,1-1.93-1.65c-.38-2.3-1.34-2.79-3.46-1.78-10.47,5-20.81,4.72-30.74-1.27a30.11,30.11,0,0,1-14.87-23,31.39,31.39,0,0,1,24.7-34.73c10.1-2.1,19.18.27,27.14,6.84,1.1.91,1.29,2,.55,2.94s-1.86.9-3,0a27.46,27.46,0,0,0-19.3-6.63,27.78,27.78,0,0,0-4.39,55,27.27,27.27,0,0,0,22.33-5,2.27,2.27,0,0,0,1-2c0-5.36,0-10.73,0-16.1a2,2,0,0,0-2.19-2.23c-1.75,0-3.49,0-5.24,0-1.52,0-2.41-.72-2.39-1.91s.88-1.84,2.35-1.85h8.42c2.36,0,2.84.47,2.84,2.79Z"/><path class="cls-1" d="M621,612.24V583.52c0-2.39.48-2.85,2.9-2.85H657.8a7.08,7.08,0,0,1,1.13,0,1.87,1.87,0,0,1,1.58,1.86,1.83,1.83,0,0,1-1.59,1.85,8.38,8.38,0,0,1-1.23.06H627.63c-2.33,0-2.83.5-2.83,2.83v20.52c0,1.94.64,2.56,2.6,2.56H650a7.08,7.08,0,0,1,1.13,0,1.87,1.87,0,0,1,1.52,1.82,1.85,1.85,0,0,1-1.58,1.86,8.48,8.48,0,0,1-1.13,0H627.44c-2,0-2.64.6-2.64,2.63V637.5c0,2,.61,2.58,2.58,2.58h30.27a8.44,8.44,0,0,1,1.23,0,1.82,1.82,0,0,1,1.63,1.8,1.86,1.86,0,0,1-1.55,1.89,5.77,5.77,0,0,1-1,0H623.57c-1.93,0-2.53-.58-2.53-2.49Z"/><path class="cls-1" d="M925.05,612.26q0-14.46,0-28.92c0-2.13.54-2.67,2.66-2.67h34.17a7.45,7.45,0,0,1,.82,0,1.88,1.88,0,0,1,1.81,1.87,1.85,1.85,0,0,1-1.77,1.9,10.47,10.47,0,0,1-1.12,0H931.55c-2.19,0-2.74.54-2.74,2.7q0,10.32,0,20.62c0,2,.63,2.59,2.57,2.59H954a8.8,8.8,0,0,1,1,0,1.86,1.86,0,0,1,1.64,1.91,1.84,1.84,0,0,1-1.65,1.79,10.66,10.66,0,0,1-1.13,0H931.57c-2.22,0-2.76.55-2.76,2.81v20.31c0,2.29.52,2.81,2.86,2.81h30a10.11,10.11,0,0,1,1.23,0,1.83,1.83,0,0,1,1.65,1.79,1.88,1.88,0,0,1-1.62,1.93,7,7,0,0,1-.92,0H927.6c-2,0-2.55-.57-2.55-2.57Q925,626.79,925.05,612.26Z"/><path class="cls-1" d="M826.58,612.26v28.81c0,.35,0,.69,0,1a1.88,1.88,0,0,1-1.91,1.76,1.86,1.86,0,0,1-1.82-1.74c0-.34,0-.68,0-1V583.47a10.59,10.59,0,0,1,0-1.13,1.86,1.86,0,0,1,1.79-1.66,1.89,1.89,0,0,1,1.92,1.64,10.61,10.61,0,0,1,0,1.13Z"/></svg>